<svg width="41" height="41" fill="none" xmlns="http://www.w3.org/2000/svg"><path fill-rule="evenodd" clip-rule="evenodd" d="M20.5 41C31.822 41 41 31.822 41 20.5S31.822 0 20.5 0 0 9.178 0 20.5 9.178 41 20.5 41z" fill="#fff"/><path fill-rule="evenodd" clip-rule="evenodd" d="M23.108 18.244a3.522 3.522 0 00-1.024-.168c-.416 0-1.312.287-1.312.843v1.334H22.9v2.244h-2.128v6.194h-2.144v-6.194H17.57v-2.244h1.056v-1.131c0-1.704.737-3.122 2.513-3.122.608 0 1.696.034 2.288.253l-.32 1.991z" fill="#080809"/></svg>